<svg t="1742990944838" class="icon" viewBox="0 0 1204 1024" version="1.1" xmlns="http://www.w3.org/2000/svg" p-id="1010" width="32" height="32"><path d="M1024.002455 90.352941c49.814588 0 90.352941 40.538353 90.352941 90.352941v662.588236c0 49.814588-40.538353 90.352941-90.352941 90.352941H180.708337c-49.814588 0-90.352941-40.538353-90.352941-90.352941V180.705882c0-49.814588 40.538353-90.352941 90.352941-90.352941h843.294118m0-90.352941H180.708337C80.913513 0 0.002455 80.911059 0.002455 180.705882v662.588236c0 99.794824 80.911059 180.705882 180.705882 180.705882h843.294118c99.794824 0 180.705882-80.911059 180.705882-180.705882V180.705882C1204.708337 80.911059 1123.797278 0 1024.002455 0z" p-id="1011"></path><path d="M340.331866 260.517647c37.360941 0 67.764706 30.403765 67.764706 67.764706s-30.403765 67.764706-67.764706 67.764706-67.764706-30.403765-67.764706-67.764706 30.403765-67.764706 67.764706-67.764706m0-90.352941c-87.326118 0-158.117647 70.791529-158.117647 158.117647s70.791529 158.117647 158.117647 158.117647 158.117647-70.791529 158.117647-158.117647-70.791529-158.117647-158.117647-158.117647zM501.370925 827.105882c-33.325176 0-55.190588-23.536941-74.721882-44.544-14.351059-15.435294-32.225882-34.665412-60.03953-54.738823-38.174118-27.542588-78.607059-46.787765-113.829647-54.15153-76.047059-15.917176-141.025882 18.100706-183.296 45.071059-21.037176 13.417412-48.971294 7.243294-62.388706-13.778823-13.417412-21.037176-7.243294-48.956235 13.778824-62.388706 21.564235-13.763765 55.055059-33.641412 96.783059-47.36 51.937882-17.076706 103.619765-20.434824 153.615059-9.968941 60.687059 12.709647 114.085647 44.709647 148.193882 69.330823 35.041882 25.283765 57.178353 49.091765 73.336471 66.484706 1.264941 1.370353 2.605176 2.800941 3.945411 4.246588 2.123294-5.556706 4.321882-11.700706 6.309647-17.257411 8.553412-23.913412 20.269176-56.681412 40.508236-91.994353 62.328471-108.754824 157.650824-161.400471 193.536-181.217883 117.097412-64.677647 227.192471-66.484706 280.109176-67.373176 44.739765-0.737882 89.840941 3.056941 134.008471 11.294117 24.530824 4.577882 40.704 28.16 36.126117 52.690824-4.577882 24.530824-28.175059 40.704-52.690823 36.126118-38.234353-7.122824-77.266824-10.420706-115.968-9.788236-49.106824 0.813176-140.513882 2.319059-237.914353 56.109177-29.831529 16.474353-109.086118 60.250353-158.840471 147.06447-16.248471 28.355765-25.584941 54.467765-33.822117 77.492706-6.610824 18.477176-12.318118 34.424471-20.449883 48.203294-13.432471 22.723765-31.894588 36.035765-54.889411 39.55953-3.960471 0.602353-7.785412 0.888471-11.459765 0.88847z" p-id="1012"></path></svg>